# xmcd
# 
# Track frame offsets:
#	150
#	20142
#	35282
#	52789
#	67300
#	87915
#	103142
#	121922
#	140460
#	153422
#	177827
#	198487
#	219850
#	234600
#	255687
#	275920
#
# Disc length: 3930 seconds
#
# Revision: 2
# Processed by: cddbd v1.5.1PL0 Copyright (c) Steve Scherf et al.
# Submitted via: Audio-CD-Archiv 3.00.486
#
DISCID=e90f5810
DTITLE=Guitar Slingers - Guitar Slingers - CD 2 (1998)
DYEAR=1900
DGENRE=blues
TTITLE0=Going Underground
TTITLE1=I Can't Dance
TTITLE2=Heart and Soul
TTITLE3=Love and Beer
TTITLE4=That Was Goodbye
TTITLE5=Here We Are Again
TTITLE6=Changing My Mind
TTITLE7=Under Our Sky
TTITLE8=9.10.11. Years Ago
TTITLE9=Guitar Slingers Song and Dance
TTITLE10=Bad Case Of Loving You (live)
TTITLE11=Some Kind Of Wonderful (live)
TTITLE12=Hard To Handle (live)
TTITLE13=Changing My Mind (live)
TTITLE14=Rollercoaster (live)
TTITLE15=Hold Me Now (live)
EXTD=
EXTT0=
EXTT1=
EXTT2=
EXTT3=
EXTT4=
EXTT5=
EXTT6=
EXTT7=
EXTT8=
EXTT9=
EXTT10=
EXTT11=
EXTT12=
EXTT13=
EXTT14=
EXTT15=
PLAYORDER=
